<svg width="15" height="15" xmlns="http://www.w3.org/2000/svg" fill="none">

 <g>
  <title>Layer 1</title>
  <path id="svg_1" d="m6.44,0.854a1.5,1.5 0 0 1 2.12,0l5.586,5.585a1.5,1.5 0 0 1 0,2.122l-5.585,5.585a1.5,1.5 0 0 1 -2.122,0l-5.585,-5.585a1.5,1.5 0 0 1 0,-2.122l3.939,-3.939l1.353,1.353a1.5,1.5 0 0 0 0.854,2.061l0,3.171a1.5,1.5 0 1 0 1,0l0,-3.17c0.05,-0.018 0.1,-0.038 0.147,-0.061l1,1a1.5,1.5 0 1 0 0.707,-0.707l-1,-1a1.5,1.5 0 0 0 -2,-2l-1.354,-1.355l0.94,-0.94l0,0.002z" fill="#ffffff"/>
  <line id="svg_2" y2="21.42613" x2="8.43023" y1="-8.53283" x1="-1.55609" fill="none"/>
  <path id="svg_4" d="m3.77907,8.15663c0,0 0,-2.87278 0,-1.09439" opacity="NaN" fill="#df5b40"/>
  <path d="m3.20649,6.82598c0,0.06859 0,0.10288 0,0.17147c0,0.06859 0,0.17147 0.03429,0.34293c0.03429,0.17147 0.09234,0.31502 0.13717,0.37722c0.02836,0.03934 0.10288,0.17147 0.17147,0.17147c0.06859,0 0.27435,0 0.44581,0c0.17147,0 0.24005,0 0.30864,-0.06859l0.10288,-0.06859l0.13717,-0.20576" id="svg_5" fill="none"/>
  <path d="m4.57822,6.55163c-0.13717,-0.03429 -0.24005,-0.03429 -0.34293,-0.03429l-0.06859,0l-0.13717,0" id="svg_6" fill="none"/>
  <path d="m3.41225,6.55163c0,0.06859 0,0.10288 0,0.24005c0,0.54869 -0.10931,1.01069 0,1.37173c0.03583,0.11834 0.21017,0.13269 0.30864,0.10288c0.5917,-0.17915 1.17198,-0.87073 1.61178,-1.54319c0.41972,-0.64175 0.52231,-1.21479 0.4801,-1.26885c-0.08702,-0.11145 -0.44207,-0.1382 -1.30314,0.17147c-1.29884,0.46709 -2.51898,1.35124 -3.39503,2.26335c-0.57505,0.59872 -0.53865,0.79879 -0.5144,0.82304c0.0485,0.0485 0.27435,0 0.61728,0l0.4801,-0.13717l0.41152,-0.13717l0.27435,-0.06859" id="svg_7" fill="none"/>
 </g>
</svg>